<?xml version="1.0" standalone="no"?>
<!DOCTYPE svg PUBLIC "-//W3C//DTD SVG 20010904//EN"
 "http://www.w3.org/TR/2001/REC-SVG-20010904/DTD/svg10.dtd">
<svg version="1.0" xmlns="http://www.w3.org/2000/svg"
 width="512.000000pt" height="512.000000pt" viewBox="0 0 512.000000 512.000000"
 preserveAspectRatio="xMidYMid meet">
<metadata>
Created by potrace 1.14, written by Peter Selinger 2001-2017
</metadata>
<g transform="translate(0.000000,512.000000) scale(0.100000,-0.100000)"
fill="#000000" stroke="none">
<path d="M2449 5097 c-69 -26 -105 -57 -346 -299 l-243 -243 294 -294 293
-293 58 12 c181 38 373 -77 434 -257 21 -64 27 -172 11 -223 -7 -23 18 -50
278 -311 280 -282 285 -287 314 -277 16 6 68 8 116 6 106 -5 179 -36 247 -105
62 -62 93 -118 110 -202 46 -217 -95 -420 -320 -462 -115 -21 -248 23 -335
111 -103 103 -136 240 -96 400 6 22 -22 54 -259 290 l-265 265 0 -697 0 -697
23 -12 c77 -41 155 -138 182 -226 19 -62 19 -165 0 -227 -68 -225 -323 -339
-536 -239 -200 93 -281 322 -186 526 28 59 104 140 160 168 l37 19 0 703 0
702 -38 22 c-154 88 -233 271 -188 433 l15 55 -290 290 -289 290 -779 -779
c-555 -555 -788 -794 -808 -830 -25 -46 -28 -60 -28 -151 0 -91 3 -105 28
-151 39 -70 2312 -2342 2377 -2376 38 -20 60 -23 145 -23 85 0 107 3 145 23
65 34 2328 2296 2367 2366 25 46 28 60 28 151 0 91 -3 105 -28 151 -40 71
-2313 2342 -2377 2375 -56 28 -195 37 -251 16z"/>
</g>
</svg>
