<?xml version="1.0" ?><!DOCTYPE svg  PUBLIC '-//W3C//DTD SVG 1.1//EN'  'http://www.w3.org/Graphics/SVG/1.1/DTD/svg11.dtd'><svg enable-background="new 0 0 1024 1024" height="1024px" id="Layer_1" version="1.1" viewBox="0 0 1024 1024" width="1024px" xml:space="preserve" xmlns="http://www.w3.org/2000/svg" xmlns:xlink="http://www.w3.org/1999/xlink"><g><path clip-rule="evenodd" d="M667.575,684.036c29.498,42.729,31.01,91.438,30.54,140.826    c-0.57,59.8-0.111,119.604-0.05,179.408c0.022,19.207-0.445,19.731-19.1,19.729c-78.256-0.012-156.512-0.005-234.769-0.007    c-17.454,0-19.02-1.667-18.996-19.188c0.055-38.141,0.018-76.282,0.018-116.467c-13.499,1.382-27.038,2.831-40.589,4.143    c-66.12,6.401-123.748-10.497-168.359-62.186c-6.244-7.236-11.229-15.609-16.383-23.721    c-22.712-35.758-44.708-71.988-68.222-107.205c-7.278-10.897-18.543-19.128-27.959-28.601c-4.959-4.988-9.87-10.026-15.707-15.965    c16.315-10.603,31.94-7.718,46.736-5.44c36.94,5.688,61.914,28.566,81.694,58.915c9.845,15.105,20.032,30.51,32.675,43.164    c40.49,40.528,89.668,53.605,145.37,40.97c35.929-8.152,28.961-4.369,34.328-37.189c3.585-21.921,9.63-42.799,21.561-61.729    c1.978-3.141,3.617-6.494,6.054-10.913c-15.766-3.111-30.49-5.605-45.016-8.956c-57.636-13.29-110.782-35.758-152.841-78.96    c-44.573-45.789-68.698-100.626-70.376-164.982c-1.411-54.079-1.079-107.997,11.167-161.119    c7.859-34.098,22.069-64.649,47.012-89.985c3.865-3.928,6.128-13.232,4.327-18.359c-17.77-50.603-15.334-100.626,1.086-150.939    c2.823-8.653,5.798-10.738,14.439-8.377c31.695,8.664,58.827,25.018,81.457,48.459c15.443,15.996,29.577,33.263,44.914,50.663    c39.151-28.285,85.473-29.278,131.177-31.946c50.531-2.949,101.104-2.15,150.76,8.614c19.284,4.182,37.626,12.71,54.768,18.69    c20.14-19.135,40.941-38.615,61.418-58.433c18.493-17.898,40.396-29.047,65.105-35.647c9.458-2.526,14.257-0.28,17.46,8.951    c16.997,48.973,19.867,97.926,0.771,147.019c-2.784,7.161-4.695,13.899,1.884,20.188c33.405,31.945,50.024,72.171,53.556,117.249    c3.73,47.601,8.206,95.606,5.865,143.117c-4.347,88.167-48.115,154.374-124.163,198.896    c-40.771,23.87-85.285,36.961-131.779,43.855c-2.664,0.394-5.354,0.662-7.979,1.232    C670.368,682.044,669.446,682.926,667.575,684.036z" fill-rule="evenodd"/></g></svg>