<?xml version="1.0" ?><!DOCTYPE svg  PUBLIC '-//W3C//DTD SVG 1.1//EN'  'http://www.w3.org/Graphics/SVG/1.1/DTD/svg11.dtd'><svg height="2048px" style="shape-rendering:geometricPrecision; text-rendering:geometricPrecision; image-rendering:optimizeQuality; fill-rule:evenodd; clip-rule:evenodd" viewBox="0 0 2048 2048" width="2048px" xml:space="preserve" xmlns="http://www.w3.org/2000/svg" xmlns:xlink="http://www.w3.org/1999/xlink"><defs><style type="text/css">
   <![CDATA[
    .fil1 {fill:none}
    .fil0 {fill:#2ebaae}
   ]]>
  </style></defs><g id="Layer_x0020_1"><path class="fil0" d="M1582.46 1627.15l120.814 -1353.39 1.58504 -17.7532 -17.8051 0 -1326.1 0 -17.8028 0 1.58268 17.7532 120.683 1353.6 1.0063 11.2843 10.8721 3.0189 541.558 150.34 8.68347 0 543.051 -150.552 10.8685 -3.01418 1.00866 -11.289zm-558.458 -1061.76l397.491 0 -2.38819 26.791 -7.56733 84.1583 -1.9937 22.3748 -385.542 0 -0.570473 0 -234.282 0 -17.804 0 1.58504 17.752 15.1736 170.001 1.33465 14.9421 14.8843 0 219.109 0 0.570473 0 340.59 0 26.8973 0 -2.43189 26.7603 0 0.0637796 -39.0177 437.067 -1.49173 16.7539 -325.357 90.1808 -324.809 -90.1761 -20.6693 -231.626 59.0126 0 74.9528 0 10.4858 117.461 1.01811 11.4 10.9878 2.96693 184.89 49.9241 8.42835 0 0.158268 -0.0425197 12.1335 -3.24213 0 -0.0437008 173.02 -46.6996 10.9854 -2.96693 1.02047 -11.4012 19.2697 -215.312 1.5874 -17.752 -17.8075 0 -203.853 0 -0.570473 0 -356.048 0 -39.4713 -442.544 -2.39055 -26.791 397.91 0 0.570473 0z"/></g><rect class="fil1" height="2048" width="2048"/></svg>