<?xml version="1.0" standalone="no"?>
<!DOCTYPE svg PUBLIC "-//W3C//DTD SVG 20010904//EN"
 "http://www.w3.org/TR/2001/REC-SVG-20010904/DTD/svg10.dtd">
<svg version="1.0" xmlns="http://www.w3.org/2000/svg"
 width="472.000000pt" height="472.000000pt" viewBox="0 0 472.000000 472.000000"
 preserveAspectRatio="xMidYMid meet">
<metadata>
Created by potrace 1.13, written by Peter Selinger 2001-2015
</metadata>
<g transform="translate(0.000000,472.000000) scale(0.100000,-0.100000)"
fill="#000000" stroke="none">
<path d="M0 2360 l0 -2360 2360 0 2360 0 0 2360 0 2360 -2360 0 -2360 0 0
-2360z m2778 2004 c315 -63 692 -275 692 -387 0 -24 -17 -48 -82 -116 l-83
-86 -589 -1535 c-324 -844 -606 -1572 -627 -1616 -170 -360 -686 -329 -820 50
-24 70 -26 185 -5 261 8 28 283 748 612 1600 l599 1550 0 128 c0 164 3 167
137 167 49 0 124 -7 166 -16z"/>
<path d="M2668 4269 c-26 -15 -23 -24 23 -74 98 -106 464 -234 562 -196 34 13
34 31 2 69 -98 116 -498 253 -587 201z"/>
<path d="M2760 2844 c-78 -78 -176 -150 -245 -179 -22 -9 -94 -29 -160 -45
-150 -36 -180 -49 -265 -111 -122 -88 -156 -140 -235 -354 -12 -33 -70 -186
-130 -340 -59 -154 -131 -343 -160 -420 -29 -77 -84 -216 -121 -310 -59 -147
-68 -180 -72 -249 -6 -111 21 -177 105 -257 49 -45 76 -62 120 -75 70 -20 151
-15 219 15 58 26 136 99 158 150 27 61 865 2245 863 2247 -1 2 -36 -31 -77
-72z m-719 -1025 c23 -26 25 -86 4 -115 -38 -55 -124 -51 -158 5 -22 37 -22
65 0 102 31 52 112 56 154 8z"/>
</g>
</svg>
