<?xml version="1.0" ?><!DOCTYPE svg  PUBLIC '-//W3C//DTD SVG 1.1//EN'  'http://www.w3.org/Graphics/SVG/1.1/DTD/svg11.dtd'><svg enable-background="new 0 0 1024 1024" height="1024px" id="Layer_1" version="1.1" viewBox="0 0 1024 1024" width="1024px" xml:space="preserve" xmlns="http://www.w3.org/2000/svg" xmlns:xlink="http://www.w3.org/1999/xlink"><g><g><path clip-rule="evenodd" d="M998.805,732.723c-13.82,22.922-26.303,46.783-41.688,68.604     c-76.772,108.89-181.907,172.541-313.433,192.371c-66.178,9.979-132.508,7.857-198.1-4.579     c-69.746-13.228-132.964-43.214-191.343-82.808C134.691,825.239,52.255,716.616,15.683,575.831     C-8.703,481.958-6.389,388.978,34.968,299.635c10.78-23.292,25.342-45.11,40.216-66.159     c17.196-24.337,36.655-47.075,56.563-69.713c-3.375,7.893-6.939,15.714-10.098,23.694     c-37.179,93.888-37.583,189.26-9.019,284.936c38.868,130.189,119.156,230.037,230.596,305.628     c99.967,67.806,210.821,100.244,331.678,96.827c91.813-2.595,178.04-24.681,252.769-80.38     c24.921-18.575,46.77-41.27,70.024-62.078C998.064,732.502,998.436,732.612,998.805,732.723z" fill-rule="evenodd"/><path clip-rule="evenodd" d="M1024,474.521c-7.513,14.825-14.04,29.874-22.392,43.834     c-53.706,89.768-133.248,140.99-236.166,157.154c-52.851,8.303-105.735,6.77-157.824-3.423     c-37.721-7.381-72.919-23.65-106.017-43.457c-95.812-57.337-164.044-136.989-192.522-246.309     c-24.27-93.162-11.342-180.839,46.995-259.745c11.403-15.424,22.224-31.278,33.336-46.917c0.379-0.535,0.992-0.902,2.345-2.1     c-0.418,2.044-0.443,3.358-0.947,4.451c-42.287,91.75-38.86,184.009,4.677,272.985c68.189,139.356,181.558,219.78,335.73,239.274     c86.489,10.936,167.009-8.228,236.772-62.518C987.96,512.208,1004.938,492.826,1024,474.521z" fill-rule="evenodd"/><path clip-rule="evenodd" d="M605.3,24c-4.276,17.406-10.085,34.323-12.4,51.707     c-7.479,56.16,9.264,106.64,40.688,152.367c47.184,68.662,113.273,106.404,195.819,116.046c26.303,3.071,52.43,2.894,78.281-3.25     c29.313-6.968,40.998-14.011,82.194-48.85c-2.51,4.832-3.814,7.739-5.46,10.44c-38.795,63.714-95.444,95.492-170.116,98.527     c-127.829,5.199-233.313-91.405-256.971-190.864c-13.99-58.816-4.693-113.471,31.083-162.94     C594.042,39.412,599.713,31.672,605.3,24z" fill-rule="evenodd"/></g></g></svg>