<?xml version="1.0"?>
<svg width="512" height="512" xmlns="http://www.w3.org/2000/svg" xmlns:svg="http://www.w3.org/2000/svg" preserveAspectRatio="xMidYMid meet">
 <metadata>Created by potrace 1.13, written by Peter Selinger 2001-2015</metadata>
 <g>
  <title>Layer 1</title>
  <g id="svg_1" fill="#000000" transform="translate(0,512) scale(0.10000000149011612,-0.10000000149011612) ">
   <path fill="#2ebaae" id="svg_2" d="m2972,4901c-206,-284 -265,-559 -187,-868c27,-107 98,-262 170,-373c64,-98 248,-280 356,-352c93,-63 238,-134 336,-167c167,-56 490,-67 658,-22c247,65 436,202 579,420c84,128 87,135 31,73c-91,-101 -227,-182 -380,-223c-67,-18 -107,-22 -240,-22c-234,0 -416,39 -612,133c-449,217 -754,692 -729,1140c5,110 38,246 76,321c11,21 19,39 17,39c-2,0 -36,-44 -75,-99z"/>
   <path fill="#2ebaae" id="svg_3" d="m1858,4588c-163,-232 -171,-243 -220,-343c-90,-180 -136,-361 -145,-575c-16,-384 86,-726 324,-1085c152,-229 432,-487 688,-634c216,-124 425,-202 625,-233c180,-28 513,-30 674,-5c504,80 892,323 1153,724c48,74 152,276 153,296c0,4 -33,-32 -74,-82c-186,-223 -451,-387 -755,-466c-156,-42 -314,-58 -496,-52c-175,6 -281,22 -453,68c-637,168 -1189,664 -1415,1269c-154,414 -141,869 35,1223c15,31 26,57 24,57c-2,0 -55,-73 -118,-162z"/>
   <path fill="#2ebaae" id="svg_4" d="m505,4088c-88,-111 -181,-234 -207,-273c-113,-173 -207,-405 -254,-630c-31,-147 -44,-464 -25,-635c51,-471 251,-947 571,-1360c96,-124 348,-376 477,-478c380,-300 834,-512 1222,-572c577,-88 1111,-29 1561,174c252,113 448,251 656,460c206,207 381,451 460,641c14,36 6,30 -80,-62c-117,-124 -220,-210 -346,-292c-449,-291 -1054,-400 -1694,-305c-680,101 -1344,494 -1809,1071c-327,407 -538,939 -565,1428c-20,371 32,655 182,998c9,20 15,37 13,37c-2,0 -75,-91 -162,-202z"/>
  </g>
 </g>
</svg>