<?xml version="1.0" standalone="no"?>
<!DOCTYPE svg PUBLIC "-//W3C//DTD SVG 20010904//EN"
 "http://www.w3.org/TR/2001/REC-SVG-20010904/DTD/svg10.dtd">
<svg version="1.0" xmlns="http://www.w3.org/2000/svg"
 width="512.000000pt" height="512.000000pt" viewBox="0 0 512.000000 512.000000"
 preserveAspectRatio="xMidYMid meet">
<metadata>
Created by potrace 1.13, written by Peter Selinger 2001-2015
</metadata>
<g transform="translate(0.000000,512.000000) scale(0.100000,-0.100000)"
fill="#000000" stroke="none">
<path d="M3808 4375 c-2 -1 -37 -5 -78 -9 -263 -22 -497 -126 -672 -301 -114
-113 -183 -232 -228 -395 -22 -76 -24 -105 -24 -270 0 -156 3 -199 22 -272 69
-277 233 -480 529 -654 107 -63 193 -105 518 -247 358 -157 437 -216 492 -367
70 -188 -37 -361 -272 -441 -92 -31 -282 -34 -390 -5 -126 33 -276 117 -368
205 -40 38 -150 170 -165 197 -9 16 -12 15 -38 -3 -16 -11 -110 -67 -209 -123
-99 -57 -217 -127 -263 -157 l-82 -53 27 -43 c68 -108 165 -233 218 -280 11
-10 40 -38 65 -61 197 -185 508 -314 825 -342 182 -15 327 -10 530 21 86 13
249 68 350 118 248 123 442 363 490 608 25 126 35 340 20 434 -52 323 -189
527 -490 730 -70 47 -363 195 -464 235 -58 23 -71 28 -256 111 -234 105 -345
204 -372 333 -26 129 25 261 130 333 63 42 114 56 207 56 93 1 125 -6 205 -42
108 -49 203 -133 244 -217 l22 -43 152 93 c229 140 407 262 407 278 0 15 -79
128 -134 193 -183 215 -416 339 -696 370 -57 6 -247 14 -252 10z"/>
<path d="M1459 3098 c0 -678 -2 -1249 -4 -1269 -16 -190 -50 -290 -120 -352
-30 -28 -103 -62 -159 -76 -106 -26 -243 2 -339 68 -68 47 -159 150 -200 228
l-37 72 -176 -105 c-223 -132 -403 -244 -410 -255 -8 -13 45 -103 123 -209
192 -260 457 -409 793 -447 112 -12 332 -6 423 13 12 2 38 7 57 10 65 11 215
65 288 105 168 90 281 205 355 360 37 77 80 212 91 284 4 22 9 54 11 70 25
148 28 337 29 1547 l1 1188 -362 0 -363 0 -1 -1232z"/>
</g>
</svg>
