<?xml version="1.0"?>
<svg width="512" height="512" xmlns="http://www.w3.org/2000/svg" xmlns:svg="http://www.w3.org/2000/svg" preserveAspectRatio="xMidYMid meet">
 <metadata>Created by potrace 1.13, written by Peter Selinger 2001-2015</metadata>
 <g>
  <title>Layer 1</title>
  <g id="svg_1" fill="#000000" transform="translate(0,512) scale(0.10000000149011612,-0.10000000149011612) ">
   <path fill="#2ebaae" id="svg_2" d="m3808,4375c-2,-1 -37,-5 -78,-9c-263,-22 -497,-126 -672,-301c-114,-113 -183,-232 -228,-395c-22,-76 -24,-105 -24,-270c0,-156 3,-199 22,-272c69,-277 233,-480 529,-654c107,-63 193,-105 518,-247c358,-157 437,-216 492,-367c70,-188 -37,-361 -272,-441c-92,-31 -282,-34 -390,-5c-126,33 -276,117 -368,205c-40,38 -150,170 -165,197c-9,16 -12,15 -38,-3c-16,-11 -110,-67 -209,-123c-99,-57 -217,-127 -263,-157l-82,-53l27,-43c68,-108 165,-233 218,-280c11,-10 40,-38 65,-61c197,-185 508,-314 825,-342c182,-15 327,-10 530,21c86,13 249,68 350,118c248,123 442,363 490,608c25,126 35,340 20,434c-52,323 -189,527 -490,730c-70,47 -363,195 -464,235c-58,23 -71,28 -256,111c-234,105 -345,204 -372,333c-26,129 25,261 130,333c63,42 114,56 207,56c93,1 125,-6 205,-42c108,-49 203,-133 244,-217l22,-43l152,93c229,140 407,262 407,278c0,15 -79,128 -134,193c-183,215 -416,339 -696,370c-57,6 -247,14 -252,10z"/>
   <path fill="#2ebaae" id="svg_3" d="m1459,3098c0,-678 -2,-1249 -4,-1269c-16,-190 -50,-290 -120,-352c-30,-28 -103,-62 -159,-76c-106,-26 -243,2 -339,68c-68,47 -159,150 -200,228l-37,72l-176,-105c-223,-132 -403,-244 -410,-255c-8,-13 45,-103 123,-209c192,-260 457,-409 793,-447c112,-12 332,-6 423,13c12,2 38,7 57,10c65,11 215,65 288,105c168,90 281,205 355,360c37,77 80,212 91,284c4,22 9,54 11,70c25,148 28,337 29,1547l1,1188l-362,0l-363,0l-1,-1232z"/>
  </g>
 </g>
</svg>