<?xml version="1.0"?>
<svg width="64" height="64.001" xmlns="http://www.w3.org/2000/svg" xmlns:svg="http://www.w3.org/2000/svg">
 <g>
  <title>Layer 1</title>
  <g id="Body_12_">
   <g id="svg_1">
    <path id="svg_2" fill-rule="evenodd" clip-rule="evenodd" fill="#2ebaae" d="m34.399,40c-1.569,-0.516 -0.846,-2.848 -0.524,-3.692c0.077,-0.17 0.125,-0.29 0.125,-0.307c0,-4.419 -3.582,-8.001 -8,-8.001c-3.376,0 -6.258,2.094 -7.432,5.053c-1.765,3.111 -4.568,2.948 -4.568,2.948c-7.732,0 -14,6.268 -14,13.999c0,5.982 8.018,14.001 14,14.001c7.731,0 14,-6.269 14,-14.001c0,-0.068 -0.009,-0.134 -0.01,-0.202l0.01,0.003c0,-6.571 5.463,-5.719 6.399,-5.801c1.105,0 2,-0.895 2,-1.999c0,-1.105 -0.894,-2.001 -2,-2.001z"/>
   </g>
  </g>
  <g id="Body_Plate">
   <g id="svg_3">
    <path id="svg_4" fill-rule="evenodd" clip-rule="evenodd" fill="#21867d" d="m27.988,49.797l0.012,0.004c0,-6.571 5.463,-5.719 6.399,-5.801c1.105,0 2,-0.895 2,-1.999c0,-1.105 -0.895,-2.001 -2,-2.001c-1.569,-0.516 -0.846,-2.846 -0.525,-3.691c0.079,-0.174 0.126,-0.29 0.126,-0.308c0,-1.193 -0.269,-2.321 -0.736,-3.338c-3.597,3.237 -19.264,17.337 -19.264,17.337s7.375,7.85 12.121,6.986c1.188,-2.058 1.879,-4.439 1.879,-6.986c0,-0.068 -0.011,-0.134 -0.012,-0.203z"/>
   </g>
  </g>
  <g id="Pickup">
   <g id="svg_5">
    <path id="svg_6" fill="#FFFFFF" d="m25.463,40.972l-2.491,-2.492c-0.688,-0.688 -1.803,-0.688 -2.491,0c-0.688,0.688 -0.688,1.804 0,2.492l2.491,2.49c0.688,0.688 1.804,0.688 2.491,0c0.688,-0.688 0.688,-1.803 0,-2.49z"/>
   </g>
  </g>
  <g id="Pickup_1_">
   <g id="svg_7">
    <path id="svg_8" fill="#FFFFFF" d="m17.463,48.972l-2.491,-2.491c-0.688,-0.688 -1.803,-0.688 -2.49,0c-0.688,0.688 -0.688,1.803 0,2.491l2.49,2.49c0.688,0.688 1.804,0.688 2.491,0c0.688,-0.688 0.688,-1.803 0,-2.49z"/>
   </g>
  </g>
  <g id="Controlls">
   <g id="svg_9">
    <path id="svg_10" fill-rule="evenodd" clip-rule="evenodd" fill="#FFFFFF" d="m15,55.998c-0.553,0 -1,0.448 -1,1.001c0,0.552 0.447,0.999 1,0.999c0.552,0 1,-0.447 1,-0.999c0,-0.553 -0.448,-1.001 -1,-1.001zm4,0c-0.553,0 -1,0.448 -1,1.001c0,0.552 0.447,0.999 1,0.999c0.552,0 1,-0.447 1,-0.999c0,-0.553 -0.448,-1.001 -1,-1.001z"/>
   </g>
  </g>
  <g id="Headstock">
   <g id="svg_11">
    <polygon id="svg_12" fill-rule="evenodd" clip-rule="evenodd" fill="#E8AD72" points="62,2.001 62,1.999 61.998,1.999 60,0 58,0 52,6 53,7     24,35.999 28,39.999 56.999,11 58,12.001 64,6 64,4   "/>
   </g>
  </g>
  <g id="Head_4_">
   <g id="svg_13">
    <polygon id="svg_14" fill-rule="evenodd" clip-rule="evenodd" fill="#666666" points="62,2.001 60,0 58,0 52,6 52,8 54,10 56,12.001     58,12.001 64,6 64,4   "/>
   </g>
  </g>
  <g id="svg_15"/>
  <g id="svg_16"/>
  <g id="svg_17"/>
  <g id="svg_18"/>
  <g id="svg_19"/>
  <g id="svg_20"/>
  <g id="svg_21"/>
  <g id="svg_22"/>
  <g id="svg_23"/>
  <g id="svg_24"/>
  <g id="svg_25"/>
  <g id="svg_26"/>
  <g id="svg_27"/>
  <g id="svg_28"/>
  <g id="svg_29"/>
 </g>
</svg>