<?xml version="1.0" standalone="no"?>
<!DOCTYPE svg PUBLIC "-//W3C//DTD SVG 20010904//EN"
 "http://www.w3.org/TR/2001/REC-SVG-20010904/DTD/svg10.dtd">
<svg version="1.0" xmlns="http://www.w3.org/2000/svg"
 width="512.000000pt" height="512.000000pt" viewBox="0 0 512.000000 512.000000"
 preserveAspectRatio="xMidYMid meet">
<metadata>
Created by potrace 1.13, written by Peter Selinger 2001-2015
</metadata>
<g transform="translate(0.000000,512.000000) scale(0.100000,-0.100000)"
fill="#000000" stroke="none">
<path d="M3047 5089 c5 -4 115 -82 246 -173 l238 -167 304 168 c168 92 299
169 292 170 -38 6 -1086 8 -1080 2z"/>
<path d="M3998 4901 c-186 -102 -333 -188 -327 -189 16 -6 1389 -198 1389
-195 0 18 -57 136 -92 190 -119 182 -315 308 -573 366 l-60 14 -337 -186z"/>
<path d="M2725 4934 c-372 -40 -861 -274 -1291 -620 -470 -378 -887 -893
-1092 -1350 -103 -230 -153 -430 -154 -609 0 -124 12 -183 53 -272 50 -107
136 -178 254 -210 253 -68 595 -10 910 156 332 174 630 405 991 765 190 191
297 312 423 481 424 567 590 1111 433 1421 -58 115 -155 194 -272 222 -53 13
-198 22 -255 16z"/>
<path d="M3691 4632 c0 -4 298 -249 661 -546 438 -357 663 -534 668 -526 12
20 59 230 75 335 17 117 18 380 1 475 -10 59 -13 65 -41 72 -16 5 -322 49
-680 98 -357 50 -658 92 -667 94 -10 2 -18 1 -17 -2z"/>
<path d="M3430 4216 c-68 -220 -151 -490 -185 -598 -34 -109 -60 -198 -58
-198 11 0 1652 110 1671 113 22 2 -182 172 -1173 978 l-131 107 -124 -402z"/>
<path d="M4115 3374 c-423 -29 -792 -53 -820 -53 -42 -1 -47 -3 -35 -15 21
-18 1281 -789 1284 -784 2 1 37 59 78 128 79 131 197 360 255 495 32 73 103
267 103 280 0 8 -61 5 -865 -51z"/>
<path d="M5020 3213 c-86 -198 -221 -453 -348 -658 l-75 -120 127 -870 c70
-478 130 -872 132 -874 2 -2 4 7 4 20 0 40 189 2522 195 2552 2 15 3 27 2 27
-2 0 -18 -35 -37 -77z"/>
<path d="M2408 2613 c-367 -340 -667 -622 -667 -628 0 -8 1694 -560 1780 -580
25 -6 25 -6 -151 692 -97 384 -201 796 -231 916 -29 119 -56 217 -59 217 -3 0
-305 -278 -672 -617z"/>
<path d="M3411 2453 c104 -411 206 -813 226 -893 l37 -144 64 69 c164 179 457
556 636 819 71 105 85 131 74 141 -7 7 -276 173 -598 370 -322 197 -595 364
-606 372 -19 12 1 -76 167 -734z"/>
<path d="M4440 2202 c-161 -233 -410 -549 -607 -772 -57 -63 -102 -118 -100
-122 2 -7 1071 -957 1074 -954 3 3 -285 1947 -289 1952 -2 2 -38 -45 -78 -104z"/>
<path d="M46 2199 c-3 -41 -10 -236 -16 -434 -6 -198 -13 -407 -16 -465 l-5
-105 86 155 c47 85 108 196 135 245 l48 90 -113 294 -113 294 -6 -74z"/>
<path d="M1710 1895 c0 -6 732 -1420 740 -1428 13 -15 329 184 525 331 214
160 590 491 574 506 -3 3 -1600 520 -1781 576 -32 10 -58 16 -58 15z"/>
<path d="M962 1762 c-553 -120 -583 -127 -578 -147 3 -11 149 -355 325 -764
l319 -745 21 70 c11 38 132 439 269 892 137 452 244 821 238 821 -6 -1 -273
-58 -594 -127z"/>
<path d="M1646 1833 c-3 -10 -125 -414 -271 -898 -146 -484 -268 -887 -270
-896 -5 -15 5 -15 112 2 274 42 551 119 805 224 98 41 358 168 358 175 0 4
-164 323 -364 709 -247 476 -366 697 -370 684z"/>
<path d="M340 1479 c0 -13 -23 -280 -50 -594 l-49 -570 78 -76 c84 -83 171
-133 286 -164 66 -18 352 -34 342 -19 -2 5 -69 167 -147 359 -220 541 -442
1070 -456 1084 -2 2 -4 -7 -4 -20z"/>
<path d="M121 1213 l-114 -207 6 -91 c8 -114 30 -229 63 -325 29 -86 83 -194
84 -167 0 10 18 233 40 494 23 262 40 482 38 490 -2 8 -54 -80 -117 -194z"/>
<path d="M3530 1164 c-262 -237 -524 -444 -755 -597 -71 -47 -139 -93 -150
-101 -19 -15 -19 -15 8 -16 15 0 487 -36 1049 -80 562 -45 1027 -80 1035 -78
16 4 -1050 952 -1075 956 -10 1 -57 -34 -112 -84z"/>
<path d="M2295 289 c-157 -77 -344 -155 -477 -199 -75 -24 -85 -31 -35 -24 17
3 572 41 1232 85 659 44 1201 82 1204 84 2 3 -14 5 -37 5 -22 0 -411 29 -864
65 -452 36 -832 65 -843 64 -11 0 -92 -36 -180 -80z"/>
</g>
</svg>
