<?xml version="1.0"?>
<svg width="512" height="512" xmlns="http://www.w3.org/2000/svg" xmlns:svg="http://www.w3.org/2000/svg" preserveAspectRatio="xMidYMid meet">
 <metadata>Created by potrace 1.13, written by Peter Selinger 2001-2015</metadata>
 <g>
  <title>Layer 1</title>
  <g id="svg_1" fill="#000000" transform="translate(0,512) scale(0.10000000149011612,-0.10000000149011612) ">
   <path fill="#2ebaae" id="svg_2" d="m3047,5089c5,-4 115,-82 246,-173l238,-167l304,168c168,92 299,169 292,170c-38,6 -1086,8 -1080,2z"/>
   <path fill="#2ebaae" id="svg_3" d="m3998,4901c-186,-102 -333,-188 -327,-189c16,-6 1389,-198 1389,-195c0,18 -57,136 -92,190c-119,182 -315,308 -573,366l-60,14l-337,-186z"/>
   <path fill="#2ebaae" id="svg_4" d="m2725,4934c-372,-40 -861,-274 -1291,-620c-470,-378 -887,-893 -1092,-1350c-103,-230 -153,-430 -154,-609c0,-124 12,-183 53,-272c50,-107 136,-178 254,-210c253,-68 595,-10 910,156c332,174 630,405 991,765c190,191 297,312 423,481c424,567 590,1111 433,1421c-58,115 -155,194 -272,222c-53,13 -198,22 -255,16z"/>
   <path fill="#2ebaae" id="svg_5" d="m3691,4632c0,-4 298,-249 661,-546c438,-357 663,-534 668,-526c12,20 59,230 75,335c17,117 18,380 1,475c-10,59 -13,65 -41,72c-16,5 -322,49 -680,98c-357,50 -658,92 -667,94c-10,2 -18,1 -17,-2z"/>
   <path fill="#2ebaae" id="svg_6" d="m3430,4216c-68,-220 -151,-490 -185,-598c-34,-109 -60,-198 -58,-198c11,0 1652,110 1671,113c22,2 -182,172 -1173,978l-131,107l-124,-402z"/>
   <path fill="#2ebaae" id="svg_7" d="m4115,3374c-423,-29 -792,-53 -820,-53c-42,-1 -47,-3 -35,-15c21,-18 1281,-789 1284,-784c2,1 37,59 78,128c79,131 197,360 255,495c32,73 103,267 103,280c0,8 -61,5 -865,-51z"/>
   <path fill="#2ebaae" id="svg_8" d="m5020,3213c-86,-198 -221,-453 -348,-658l-75,-120l127,-870c70,-478 130,-872 132,-874c2,-2 4,7 4,20c0,40 189,2522 195,2552c2,15 3,27 2,27c-2,0 -18,-35 -37,-77z"/>
   <path fill="#2ebaae" id="svg_9" d="m2408,2613c-367,-340 -667,-622 -667,-628c0,-8 1694,-560 1780,-580c25,-6 25,-6 -151,692c-97,384 -201,796 -231,916c-29,119 -56,217 -59,217c-3,0 -305,-278 -672,-617z"/>
   <path fill="#2ebaae" id="svg_10" d="m3411,2453c104,-411 206,-813 226,-893l37,-144l64,69c164,179 457,556 636,819c71,105 85,131 74,141c-7,7 -276,173 -598,370c-322,197 -595,364 -606,372c-19,12 1,-76 167,-734z"/>
   <path fill="#2ebaae" id="svg_11" d="m4440,2202c-161,-233 -410,-549 -607,-772c-57,-63 -102,-118 -100,-122c2,-7 1071,-957 1074,-954c3,3 -285,1947 -289,1952c-2,2 -38,-45 -78,-104z"/>
   <path fill="#2ebaae" id="svg_12" d="m46,2199c-3,-41 -10,-236 -16,-434c-6,-198 -13,-407 -16,-465l-5,-105l86,155c47,85 108,196 135,245l48,90l-113,294l-113,294l-6,-74z"/>
   <path fill="#2ebaae" id="svg_13" d="m1710,1895c0,-6 732,-1420 740,-1428c13,-15 329,184 525,331c214,160 590,491 574,506c-3,3 -1600,520 -1781,576c-32,10 -58,16 -58,15z"/>
   <path fill="#2ebaae" id="svg_14" d="m962,1762c-553,-120 -583,-127 -578,-147c3,-11 149,-355 325,-764l319,-745l21,70c11,38 132,439 269,892c137,452 244,821 238,821c-6,-1 -273,-58 -594,-127z"/>
   <path fill="#2ebaae" id="svg_15" d="m1646,1833c-3,-10 -125,-414 -271,-898c-146,-484 -268,-887 -270,-896c-5,-15 5,-15 112,2c274,42 551,119 805,224c98,41 358,168 358,175c0,4 -164,323 -364,709c-247,476 -366,697 -370,684z"/>
   <path fill="#2ebaae" id="svg_16" d="m340,1479c0,-13 -23,-280 -50,-594l-49,-570l78,-76c84,-83 171,-133 286,-164c66,-18 352,-34 342,-19c-2,5 -69,167 -147,359c-220,541 -442,1070 -456,1084c-2,2 -4,-7 -4,-20z"/>
   <path fill="#2ebaae" id="svg_17" d="m121,1213l-114,-207l6,-91c8,-114 30,-229 63,-325c29,-86 83,-194 84,-167c0,10 18,233 40,494c23,262 40,482 38,490c-2,8 -54,-80 -117,-194z"/>
   <path fill="#2ebaae" id="svg_18" d="m3530,1164c-262,-237 -524,-444 -755,-597c-71,-47 -139,-93 -150,-101c-19,-15 -19,-15 8,-16c15,0 487,-36 1049,-80c562,-45 1027,-80 1035,-78c16,4 -1050,952 -1075,956c-10,1 -57,-34 -112,-84z"/>
   <path fill="#2ebaae" id="svg_19" d="m2295,289c-157,-77 -344,-155 -477,-199c-75,-24 -85,-31 -35,-24c17,3 572,41 1232,85c659,44 1201,82 1204,84c2,3 -14,5 -37,5c-22,0 -411,29 -864,65c-452,36 -832,65 -843,64c-11,0 -92,-36 -180,-80z"/>
  </g>
 </g>
</svg>