<?xml version="1.0" ?><svg enable-background="new 0 0 64 64" version="1.1" viewBox="0 0 64 64" xml:space="preserve" xmlns="http://www.w3.org/2000/svg" xmlns:xlink="http://www.w3.org/1999/xlink"><g id="Glyph_copy_2"><path d="M60.974,6.166h-58c-1.65,0-3,1.35-3,3v45.667c0,1.65,1.35,3,3,3h58c1.65,0,3-1.35,3-3V9.166   C63.974,7.516,62.624,6.166,60.974,6.166z M25.227,13.042H57.09v5.322H21.751L25.227,13.042z M12.637,31.897v-4h38.727v4H12.637z    M51.363,37.103v4H12.637v-4H51.363z M17.244,13.985c0.91,0,1.648,0.737,1.648,1.646c0,0.909-0.738,1.646-1.648,1.646   s-1.648-0.737-1.648-1.646C15.595,14.722,16.333,13.985,17.244,13.985z M12.875,13.985c0.91,0,1.648,0.737,1.648,1.646   c0,0.909-0.738,1.646-1.648,1.646s-1.648-0.737-1.648-1.646C11.227,14.722,11.965,13.985,12.875,13.985z M8.506,13.985   c0.91,0,1.648,0.737,1.648,1.646c0,0.909-0.738,1.646-1.648,1.646s-1.648-0.737-1.648-1.646   C6.858,14.722,7.596,13.985,8.506,13.985z M2.216,54.074l4.525-3.437h7.954l-4.51,3.437H2.216z M13.648,54.074l4.525-3.437h27.601   l4.525,3.437H13.648z M53.762,54.074l-4.51-3.437h7.954l4.526,3.437H53.762z"/></g></svg>